# xmcd
#
# Track frame offsets: 
#        150
#        17432
#        34388
#        66951
#        88584
#        110833
#        123931
#        146978
#        167236
#        180003
#        200866
#        228685
#        248767
#        268474
#        285676
#
# Disc length: 4266 seconds
#
# Revision: 0
# Processed by: cddbd v1.5.2PL0 Copyright (c) Steve Scherf et al.
# Submitted via: ExactAudioCopy v0.99pb5
#
DISCID=e610a80f
DTITLE=Various Artist - This Is The Blues Volume Four
DYEAR=2010
DGENRE=Blues
TTITLE0=John Lee Hooker - This Is Hip
TTITLE1=The Pretty Things - Judgement Day
TTITLE2=Snowy White, Rabbit Bundrick, Kuma Harada, Jeff Allen - Lookin
TTITLE2=g For Somebody
TTITLE3=Gary Brooker, Andy Fairweather Low, Matt Pegg, Henry Spinetti 
TTITLE3=/ Baby Lee
TTITLE4=Maggie Bell, Big Jim Sullivan - Blind Man
TTITLE5=Ian Anderson, Andy Giddings, John McKenzie, Pete Brown - Man O
TTITLE5=f The World
TTITLE6=Arthur Brown, Dick Heckstall Smith, Randall Ward, Mark William
TTITLE6=s, Gary Scuz, Jeff Danford, Pete Brown - The Green Manalishi
TTITLE7=Harvey Mandel, Jon Paris, Wilbur Hascomb, Damon Duewhite, Pete
TTITLE7=r Brown - Watch Out
TTITLE8=Ray Gomez, Troy Turner, Bobby Chouinard, 'Even' Steven Levee /
TTITLE8=Lazy Poker Blues
TTITLE9=Suzanne Sterling, Futoshi Morroka, Chris Wilson, Ken Greene, L
TTITLE9=onnie Walter - The Business
TTITLE10=Top Topham, Jim McCarthy, Andy Cleveland - Drifting
TTITLE11=Kim Lembo, Mark Doyle, Cathy Lamanna, Mike Doyle - A Fool No 
TTITLE11=More
TTITLE12=Georgie Fame, Tristan Powell, James Powell - If You Live
TTITLE13=Miller Anderson - Don't Let Me Be Misunderstood
TTITLE14=Billy Sheehan, Roy Z, Greg Bissonette, Doug Van Booven, Tommy
TTITLE14=Mandel - Oh Well
EXTD=
EXTT0=
EXTT1=
EXTT2=
EXTT3=
EXTT4=
EXTT5=
EXTT6=
EXTT7=
EXTT8=
EXTT9=
EXTT10=
EXTT11=
EXTT12=
EXTT13=
EXTT14=
PLAYORDER=
